<svg width="34" height="44" viewBox="0 0 34 44" fill="none" xmlns="http://www.w3.org/2000/svg">
<path fill-rule="evenodd" clip-rule="evenodd" d="M16.9231 44C16.9231 44 33.8462 32.1538 33.8462 16.9231C33.8462 12.4348 32.0632 8.13035 28.8895 4.95665C25.7158 1.78296 21.4114 0 16.9231 0C12.4348 0 8.13035 1.78296 4.95665 4.95665C1.78296 8.13035 0 12.4348 0 16.9231C0 32.1538 16.9231 44 16.9231 44ZM23.6923 16.9231C23.6923 20.6616 20.6616 23.6923 16.9231 23.6923C13.1845 23.6923 10.1538 20.6616 10.1538 16.9231C10.1538 13.1845 13.1845 10.1538 16.9231 10.1538C20.6616 10.1538 23.6923 13.1845 23.6923 16.9231Z" fill="#FF9E65"/>
</svg>
